<svg xmlns="http://www.w3.org/2000/svg" xmlns:xlink="http://www.w3.org/1999/xlink" width="320" zoomAndPan="magnify" viewBox="0 0 240 239.999995" height="320" preserveAspectRatio="xMidYMid meet" version="1.0"><defs><g/><clipPath id="fd85efa87e"><path d="M 26.652344 0.28125 L 170 0.28125 L 170 193.003906 L 26.652344 193.003906 Z M 26.652344 0.28125 " clip-rule="nonzero"/></clipPath><clipPath id="9a482521be"><path d="M 0.078125 148 L 200 148 L 200 235 L 0.078125 235 Z M 0.078125 148 " clip-rule="nonzero"/></clipPath><clipPath id="52c31faa8a"><rect x="0" width="200" y="0" height="87"/></clipPath><clipPath id="69626552ce"><path d="M 104 211.351562 L 208.640625 211.351562 L 208.640625 229.347656 L 104 229.347656 Z M 104 211.351562 " clip-rule="nonzero"/></clipPath><clipPath id="3c37a9068d"><rect x="0" width="209" y="0" height="235"/></clipPath></defs><g transform="matrix(1, 0, 0, 1, 22, 5)"><g clip-path="url(#3c37a9068d)"><g clip-path="url(#fd85efa87e)"><path fill="#ff3131" d="M 142.117188 77.609375 C 142.253906 77.355469 142.085938 77.265625 141.886719 77.195312 L 141.90625 77.214844 C 142.097656 77.042969 142.289062 76.867188 142.554688 76.628906 C 142.742188 76.664062 143.023438 76.722656 143.300781 76.777344 L 143.289062 76.765625 C 143.316406 77.140625 143.40625 77.480469 143.886719 77.613281 C 144.023438 77.375 144.148438 77.160156 144.28125 76.929688 C 144.929688 77.734375 146.085938 77.996094 147.085938 77.621094 C 147.234375 77.566406 147.433594 77.582031 147.59375 77.628906 C 148.085938 77.785156 148.566406 77.972656 149.050781 78.144531 L 149.027344 78.117188 C 149.003906 78.320312 148.976562 78.527344 148.945312 78.804688 C 148.457031 78.617188 148.015625 78.542969 147.710938 79.050781 C 147.773438 79.171875 147.839844 79.292969 147.949219 79.492188 C 147.738281 79.617188 147.523438 79.742188 147.195312 79.929688 C 147.222656 79.589844 147.238281 79.367188 147.253906 79.109375 C 147.105469 79.035156 146.9375 78.882812 146.789062 78.898438 C 146.433594 78.9375 146.152344 78.976562 145.871094 79.15625 C 145.714844 79.191406 145.5625 79.269531 145.402344 79.292969 C 145.277344 79.050781 145.160156 78.820312 145.058594 78.601562 C 144.621094 78.632812 144.195312 78.671875 143.777344 78.722656 C 143.421875 78.5625 143.078125 78.402344 142.75 78.238281 C 142.316406 78.234375 141.890625 78.234375 141.464844 78.238281 C 141.140625 78.402344 140.796875 78.5625 140.441406 78.722656 C 140.023438 78.671875 139.597656 78.632812 139.160156 78.601562 C 139.058594 78.820312 138.941406 79.050781 138.816406 79.292969 C 138.65625 79.269531 138.503906 79.191406 138.347656 79.15625 C 138.066406 78.976562 137.785156 78.9375 137.429688 78.898438 C 137.28125 78.882812 137.113281 79.035156 136.964844 79.109375 C 136.980469 79.367188 136.996094 79.589844 137.023438 79.929688 C 136.695312 79.742188 136.480469 79.617188 136.269531 79.492188 C 136.378906 79.292969 136.445312 79.171875 136.507812 79.050781 C 136.203125 78.542969 135.761719 78.617188 135.273438 78.804688 C 135.242188 78.527344 135.214844 78.320312 135.191406 78.117188 L 135.167969 78.144531 C 135.652344 77.972656 136.132812 77.785156 136.625 77.628906 C 136.785156 77.582031 136.984375 77.566406 137.132812 77.621094 C 138.132812 77.996094 139.289062 77.734375 139.9375 76.929688 C 140.070312 77.160156 140.195312 77.375 140.332031 77.613281 C 140.8125 77.480469 140.902344 77.140625 140.929688 76.765625 L 140.917969 76.777344 C 141.195312 76.722656 141.476562 76.664062 141.664062 76.628906 C 141.929688 76.867188 142.121094 77.042969 142.3125 77.214844 L 142.332031 77.195312 C 142.132812 77.265625 141.964844 77.355469 141.101562 77.609375 C 141.191406 77.710938 141.285156 77.808594 141.382812 77.902344 C 141.480469 77.898438 141.578125 77.894531 141.675781 77.894531 C 141.773438 77.894531 141.871094 77.898438 141.96875 77.902344 C 142.066406 77.808594 142.160156 77.710938 142.25 77.609375 L 142.117188 77.609375 Z M 141.664062 76.628906 " fill-rule="nonzero"/></g><g clip-path="url(#9a482521be)"><path fill="#ffa726" d="M 123.464844 206.214844 C 123.566406 206.421875 123.777344 206.558594 124.011719 206.558594 C 124.246094 206.558594 124.457031 206.421875 124.558594 206.214844 L 128.207031 198.171875 C 128.3125 197.964844 128.214844 197.707031 128 197.570312 C 127.785156 197.433594 127.535156 197.519531 127.429688 197.726562 L 124.894531 203.367188 C 124.570312 203.15625 124.179688 203.039062 123.75 203.039062 C 123.320312 203.039062 122.929688 203.15625 122.605469 203.367188 L 120.070312 197.726562 C 119.964844 197.519531 119.714844 197.433594 119.5 197.570312 C 119.285156 197.707031 119.1875 197.964844 119.292969 198.171875 L 123.464844 206.214844 Z M 123.75 204.988281 C 124.550781 204.988281 125.207031 205.621094 125.207031 206.390625 C 125.207031 207.160156 124.550781 207.792969 123.75 207.792969 C 122.949219 207.792969 122.292969 207.160156 122.292969 206.390625 C 122.292969 205.621094 122.949219 204.988281 123.75 204.988281 Z M 123.75 204.988281 " fill-rule="nonzero"/></g><g clip-path="url(#52c31faa8a)"><path fill="#6c7d36" d="M 98.867188 86.867188 C 98.867188 86.867188 100.988281 85.488281 103.5 81.863281 C 104.617188 80.304688 104.617188 78.578125 103.5 77.019531 C 100.988281 73.394531 98.867188 72.015625 98.867188 72.015625 C 98.867188 72.015625 96.746094 73.394531 94.234375 77.019531 C 93.117188 78.578125 93.117188 80.304688 94.234375 81.863281 C 96.746094 85.488281 98.867188 86.867188 98.867188 86.867188 Z M 97.871094 79.441406 C 97.667969 79.207031 97.667969 78.875 97.871094 78.640625 L 99.191406 76.996094 C 99.394531 76.761719 99.71875 76.761719 99.921875 76.996094 L 101.242188 78.640625 C 101.445312 78.875 101.445312 79.207031 101.242188 79.441406 L 99.921875 81.085938 C 99.71875 81.320312 99.394531 81.320312 99.191406 81.085938 L 97.871094 79.441406 Z M 97.871094 79.441406 " fill-rule="nonzero"/></g></g><g clip-path="url(#69626552ce)"><path fill="#ff7043" d="M 105.652344 227.976562 C 104.71875 227.582031 104.261719 226.566406 104.652344 225.632812 C 105.046875 224.699219 106.058594 224.246094 106.992188 224.640625 C 107.925781 225.035156 108.382812 226.050781 107.988281 226.984375 C 107.597656 227.917969 106.585938 228.371094 105.652344 227.976562 Z M 105.652344 227.976562 " fill-rule="nonzero"/></g></g></svg>
